<?xml version="1.0" standalone="no"?>
<!DOCTYPE svg PUBLIC "-//W3C//DTD SVG 20010904//EN"
 "http://www.w3.org/TR/2001/REC-SVG-20010904/DTD/svg10.dtd">
<svg version="1.0" xmlns="http://www.w3.org/2000/svg"
 width="916.000000pt" height="272.000000pt" viewBox="0 0 916.000000 272.000000"
 preserveAspectRatio="xMidYMid meet">

<g transform="translate(0.000000,272.000000) scale(0.100000,-0.100000)"
fill="#000000" stroke="none">
<path d="M4365 2464 c-38 -2 -194 -8 -345 -15 -158 -6 -278 -16 -281 -21 -4
-6 -8 -6 -10 -1 -5 11 -258 -6 -714 -48 -109 -10 -492 -55 -550 -65 -16 -2
-37 -5 -45 -5 -35 -2 -227 -30 -245 -36 -11 -3 -29 -7 -40 -8 -99 -10 -150
-17 -157 -22 -5 -2 -28 -7 -51 -9 -23 -3 -58 -9 -77 -14 -19 -6 -50 -10 -68
-10 -19 0 -31 -4 -27 -10 3 -5 0 -7 -8 -4 -19 7 -323 -55 -577 -117 -272 -67
-779 -216 -745 -218 6 -1 119 26 250 58 132 33 266 65 297 72 32 6 55 16 52
20 -3 5 1 6 9 3 7 -2 54 4 103 15 201 45 566 116 799 155 17 3 110 17 208 31
116 16 184 30 193 40 9 8 20 15 27 15 6 0 2 -7 -9 -16 -17 -14 -17 -15 -1 -10
10 3 32 6 48 6 17 0 28 4 25 8 -2 4 11 6 30 4 24 -3 34 0 34 9 0 10 3 11 8 3
8 -14 115 -6 106 7 -3 5 8 6 23 3 15 -3 120 4 233 16 113 12 212 21 220 22 8
0 141 9 295 20 154 10 291 19 305 19 14 1 176 5 360 10 485 13 885 13 1212 -1
223 -9 295 -9 323 0 20 7 39 9 42 6 4 -3 -2 -6 -12 -6 -12 0 -16 -3 -9 -10 5
-5 79 -11 164 -14 85 -3 162 -7 170 -10 8 -3 60 -8 115 -11 55 -3 141 -10 190
-15 243 -26 470 -52 560 -65 55 -9 118 -17 140 -19 50 -5 223 -37 420 -77 267
-55 544 -131 728 -202 45 -18 67 -22 67 -14 0 7 5 4 11 -5 5 -10 15 -18 21
-18 6 0 17 8 25 18 13 16 13 15 4 -4 -9 -18 -6 -23 15 -33 20 -9 24 -8 19 1
-4 7 0 5 8 -4 8 -10 17 -15 20 -11 4 3 7 2 7 -4 0 -5 11 -15 25 -21 32 -15 38
-15 29 0 -4 7 -3 8 5 4 6 -4 9 -12 6 -17 -6 -9 -5 -10 33 -14 12 -1 26 -6 30
-10 4 -5 -1 -5 -11 -2 -11 4 -16 3 -12 -3 3 -6 15 -10 25 -10 10 0 20 -4 22
-8 2 -4 30 -28 63 -54 33 -25 75 -62 94 -82 19 -19 39 -32 44 -29 6 3 7 1 3
-5 -3 -6 1 -15 10 -20 9 -5 16 -13 16 -18 0 -5 9 -26 19 -47 39 -75 39 -160 2
-257 -4 -8 -7 -17 -7 -20 -4 -22 -115 -143 -176 -193 -41 -33 -74 -64 -72 -69
1 -5 -2 -6 -8 -3 -6 4 -19 0 -28 -8 -9 -7 -25 -17 -35 -20 -11 -4 -15 -12 -11
-18 4 -7 3 -9 -4 -5 -13 8 -94 -33 -87 -44 3 -4 -2 -13 -9 -19 -9 -7 -17 -8
-20 -2 -3 5 -63 -17 -133 -48 -71 -32 -145 -64 -166 -71 -21 -6 -36 -14 -34
-16 2 -3 68 18 145 46 77 27 142 50 145 50 2 0 31 12 63 27 33 15 61 27 64 28
26 6 72 26 167 72 89 43 111 57 107 71 -5 13 -4 14 4 3 8 -11 15 -10 40 5 17
10 29 21 27 24 -2 4 2 7 9 7 6 0 41 19 75 43 49 32 60 45 50 52 -11 7 -9 8 5
4 27 -9 153 122 191 199 26 52 30 71 30 140 -1 71 -4 87 -34 143 -37 69 -104
142 -186 202 -57 42 -71 48 -59 28 3 -7 -4 -1 -17 13 -29 32 -94 68 -224 123
-119 51 -384 140 -392 132 -4 -3 -11 -2 -17 3 -12 10 -214 60 -341 85 -16 4
-41 9 -55 12 -14 2 -61 11 -104 19 -43 8 -86 17 -95 19 -50 15 -524 78 -801
106 -474 48 -804 61 -1555 64 -385 2 -731 2 -770 0z m12 -70 c-3 -3 -12 -4
-19 -1 -8 3 -5 6 6 6 11 1 17 -2 13 -5z m-994 -11 c-7 -2 -19 -2 -25 0 -7 3
-2 5 12 5 14 0 19 -2 13 -5z m270 -10 c-7 -2 -21 -2 -30 0 -10 3 -4 5 12 5 17
0 24 -2 18 -5z m-626 -29 c-3 -3 -12 -4 -19 -1 -8 3 -5 6 6 6 11 1 17 -2 13
-5z m3918 -24 c3 -5 2 -10 -4 -10 -5 0 -13 5 -16 10 -3 6 -2 10 4 10 5 0 13
-4 16 -10z m-242 -17 c-7 -2 -19 -2 -25 0 -7 3 -2 5 12 5 14 0 19 -2 13 -5z
m-16 -19 c-3 -3 -12 -4 -19 -1 -8 3 -5 6 6 6 11 1 17 -2 13 -5z m-4690 -70
c-3 -3 -12 -4 -19 -1 -8 3 -5 6 6 6 11 1 17 -2 13 -5z m5889 -29 c-8 -8 -18
-15 -22 -15 -3 0 -1 7 6 15 7 8 17 15 22 15 5 0 3 -7 -6 -15z m184 -125 c0 -5
-4 -10 -10 -10 -5 0 -10 5 -10 10 0 6 5 10 10 10 6 0 10 -4 10 -10z m-80 -10
c0 -5 -5 -10 -11 -10 -5 0 -7 5 -4 10 3 6 8 10 11 10 2 0 4 -4 4 -10z m515
-48 c-3 -3 -11 0 -18 7 -9 10 -8 11 6 5 10 -3 15 -9 12 -12z m-234 -94 c11
-21 11 -22 -4 -9 -10 7 -17 17 -17 22 0 15 9 10 21 -13z m104 -8 c-3 -5 -13
-6 -21 -3 -12 4 -13 8 -3 14 15 9 32 2 24 -11z m55 -54 c0 -2 -7 -7 -16 -10
-8 -3 -12 -2 -9 4 6 10 25 14 25 6z m397 -25 c10 -16 9 -22 -5 -32 -14 -11
-15 -11 -5 0 8 10 7 17 -5 32 -8 10 -20 15 -25 12 -6 -3 -7 -1 -3 5 9 14 28 7
43 -17z m-297 -55 c0 -2 -8 -10 -17 -17 -16 -13 -17 -12 -4 4 13 16 21 21 21
13z m290 -105 c0 -6 -4 -13 -10 -16 -5 -3 -10 1 -10 9 0 9 5 16 10 16 6 0 10
-4 10 -9z m65 -380 c3 -5 0 -13 -6 -17 -7 -4 -9 -3 -5 4 3 6 -2 13 -11 15 -16
4 -16 5 -1 6 9 0 19 -3 23 -8z m-175 -41 c0 -5 -2 -10 -4 -10 -3 0 -8 5 -11
10 -3 6 -1 10 4 10 6 0 11 -4 11 -10z m-30 -40 c0 -5 -2 -10 -4 -10 -3 0 -8 5
-11 10 -3 6 -1 10 4 10 6 0 11 -4 11 -10z m-50 -44 c0 -3 -4 -8 -10 -11 -5 -3
-10 -1 -10 4 0 6 5 11 10 11 6 0 10 -2 10 -4z m-30 -57 c0 -5 -4 -7 -10 -4 -5
3 -10 1 -10 -5 0 -6 -5 -8 -11 -4 -8 4 -7 9 2 15 19 12 29 11 29 -2z m-126
-121 c-3 -4 -11 -5 -19 -1 -21 7 -19 12 4 10 11 0 18 -5 15 -9z m-89 -38 c3
-5 1 -10 -4 -10 -6 0 -11 5 -11 10 0 6 2 10 4 10 3 0 8 -4 11 -10z"/>
<path d="M5532 1916 c-195 -63 -240 -345 -71 -452 22 -14 93 -42 157 -63 195
-63 237 -93 237 -165 0 -53 -26 -93 -73 -113 -48 -20 -158 -19 -208 2 -48 20
-94 62 -94 87 0 22 4 22 -76 2 l-64 -17 6 -36 c10 -54 29 -85 75 -125 67 -57
137 -79 251 -80 91 0 102 2 165 35 52 26 76 45 100 82 57 85 67 221 24 305
-38 75 -98 113 -246 157 -187 56 -215 74 -215 142 0 71 40 96 154 97 94 1 154
-19 164 -54 l7 -27 63 30 64 30 -7 35 c-10 52 -38 87 -93 114 -40 19 -65 23
-162 25 -77 2 -129 -2 -158 -11z"/>
<path d="M2760 1441 l0 -481 223 0 c246 0 286 6 369 59 63 40 100 98 106 166
9 107 -44 199 -147 254 l-54 29 40 25 c160 101 150 296 -19 388 l-63 34 -227
3 -228 3 0 -480z m403 338 c49 -13 77 -57 77 -119 0 -53 -30 -124 -58 -139
-12 -6 -73 -11 -136 -11 l-116 0 0 140 0 140 98 0 c53 0 114 -5 135 -11z m80
-437 c17 -18 31 -48 38 -84 10 -49 9 -61 -7 -95 -31 -62 -66 -74 -214 -71
l-125 3 -3 138 -3 137 144 0 143 0 27 -28z"/>
<path d="M3667 1808 c-9 -142 -9 -795 -1 -825 l6 -23 285 0 284 0 -3 66 -3 65
-210 2 -210 2 -3 413 -2 412 -69 0 -68 0 -6 -112z"/>
<path d="M6230 1440 l0 -480 300 0 300 0 0 65 0 65 -225 0 -225 0 0 165 0 165
225 0 226 0 -3 68 -3 67 -222 3 -223 2 0 115 0 115 225 0 225 0 0 65 0 65
-300 0 -300 0 0 -480z"/>
<path d="M4671 1747 c-47 -89 -158 -301 -248 -471 -90 -170 -163 -310 -163
-312 0 -2 40 -4 88 -4 l88 0 55 123 56 122 212 3 212 2 59 -125 59 -125 85 0
c48 0 86 2 86 3 0 2 -55 109 -123 238 -68 129 -179 341 -247 472 -69 130 -127
237 -130 237 -3 0 -43 -73 -89 -163z m162 -247 c37 -77 67 -144 67 -150 0 -6
-51 -10 -140 -10 -89 0 -140 4 -140 10 0 16 132 290 140 290 4 0 37 -63 73
-140z"/>
<path d="M930 1536 c-179 -63 -400 -162 -400 -179 0 -5 4 -6 9 -2 5 3 12 1 16
-4 3 -6 -5 -8 -20 -5 -29 5 -87 -24 -78 -39 3 -6 1 -7 -5 -3 -21 13 -180 -128
-183 -161 0 -5 -6 -11 -14 -16 -7 -4 -21 -27 -31 -52 -16 -44 -16 -46 2 -60
18 -13 18 -14 -3 -8 -26 6 -28 -2 -12 -62 14 -56 30 -85 42 -78 6 4 7 1 3 -6
-11 -17 22 -51 42 -44 12 3 13 2 5 -4 -10 -7 -5 -17 20 -39 41 -38 109 -84
125 -84 7 0 12 -4 12 -9 0 -5 9 -11 20 -14 31 -8 34 -10 48 -23 7 -7 21 -11
32 -9 11 2 18 0 15 -5 -6 -9 90 -44 118 -42 9 0 15 -3 12 -8 -4 -7 28 -21 60
-25 6 -1 18 -5 27 -9 9 -4 21 -5 27 -2 5 3 11 1 13 -4 4 -12 128 -41 141 -33
4 2 7 0 7 -5 0 -23 686 -143 739 -129 11 3 21 1 23 -3 2 -5 48 -12 102 -16 73
-5 97 -4 92 4 -5 8 -2 10 8 6 9 -3 14 -10 11 -14 -7 -11 165 -24 207 -15 22 4
28 3 19 -3 -45 -31 1419 -38 1834 -9 132 10 276 20 320 23 44 3 113 10 153 15
40 5 91 9 113 9 22 0 38 3 36 7 -3 5 38 9 91 11 53 1 99 6 102 10 3 4 21 7 40
7 19 0 55 3 80 7 25 4 77 10 115 14 39 3 78 10 88 15 9 6 21 8 26 5 4 -3 59 4
122 15 63 11 134 22 159 24 135 15 706 146 825 189 61 22 38 19 -92 -14 -179
-44 -439 -96 -628 -125 -55 -9 -101 -20 -103 -25 -2 -6 -8 -10 -13 -10 -6 0
-7 4 -4 10 6 9 -39 5 -75 -7 -8 -2 -40 -7 -70 -9 -30 -2 -71 -7 -90 -11 -19
-3 -39 -5 -44 -4 -4 1 -42 -3 -85 -9 -118 -15 -501 -49 -648 -56 -73 -4 -133
-11 -133 -15 0 -5 -6 -6 -13 -3 -27 10 -420 -15 -428 -28 -5 -8 -11 -9 -21 -1
-9 8 -169 11 -518 11 -278 0 -525 2 -550 6 -25 3 -112 8 -195 11 -82 2 -161 6
-175 9 -69 12 -218 17 -224 7 -4 -6 -17 -11 -29 -10 -21 0 -21 1 -2 8 18 7 17
9 -10 14 -16 4 -57 9 -90 12 -33 3 -78 8 -100 11 -22 3 -56 7 -75 9 -43 4
-218 31 -290 45 -70 13 -100 13 -80 0 13 -8 12 -10 -2 -10 -10 0 -18 6 -18 13
0 8 -24 18 -62 26 -35 7 -107 23 -161 36 -55 13 -106 21 -115 18 -9 -4 -13 -2
-9 4 4 6 -31 21 -86 38 -51 15 -129 42 -175 61 -46 19 -88 31 -94 28 -7 -4 -8
-2 -4 4 4 7 2 12 -4 12 -7 0 -25 9 -41 21 -16 11 -34 17 -41 13 -7 -4 -10 -4
-6 1 10 10 -39 48 -52 40 -6 -4 -9 -2 -8 4 2 5 -18 28 -44 49 -26 22 -44 42
-41 46 3 3 -2 8 -11 12 -9 3 -13 10 -10 15 3 5 -4 9 -15 9 -24 0 -36 16 -20
26 8 4 9 3 5 -4 -4 -7 -2 -12 4 -12 8 0 9 7 5 18 -16 39 -17 112 -1 157 8 26
13 52 9 58 -3 5 -1 7 5 3 6 -3 13 2 16 12 10 30 136 149 214 200 39 27 69 52
65 57 -5 4 -3 5 4 1 6 -3 36 8 65 25 29 18 80 45 113 60 80 37 61 35 -55 -5z
m-40 -30 c0 -3 -4 -8 -10 -11 -5 -3 -10 -1 -10 4 0 6 5 11 10 11 6 0 10 -2 10
-4z m-125 -74 c-3 -3 -11 0 -18 7 -9 10 -8 11 6 5 10 -3 15 -9 12 -12z m-65
-24 c0 -5 5 -6 12 -2 7 4 8 3 4 -4 -8 -14 -33 -5 -40 13 -3 9 0 12 10 8 7 -3
14 -9 14 -15z m-42 -12 c-7 -8 -15 -12 -17 -11 -5 6 10 25 20 25 5 0 4 -6 -3
-14z m-105 -92 c-4 -12 -8 -13 -14 -3 -9 15 -2 32 11 24 5 -3 6 -13 3 -21z
m-43 -24 c0 -5 -4 -10 -10 -10 -5 0 -10 5 -10 10 0 6 5 10 10 10 6 0 10 -4 10
-10z m-125 -60 c-3 -5 -10 -10 -16 -10 -5 0 -9 5 -9 10 0 6 7 10 16 10 8 0 12
-4 9 -10z m108 -26 c-3 -8 -7 -14 -10 -14 -3 0 -3 6 0 14 3 7 0 20 -6 27 -10
11 -9 11 5 0 9 -7 14 -19 11 -27z m-248 -294 c3 -5 1 -10 -4 -10 -6 0 -11 5
-11 10 0 6 2 10 4 10 3 0 8 -4 11 -10z m275 -21 c0 -6 -4 -7 -10 -4 -5 3 -10
1 -10 -6 0 -7 -2 -10 -5 -7 -9 8 6 38 16 32 5 -3 9 -10 9 -15z m-135 -89 c3
-5 -1 -10 -10 -10 -9 0 -13 5 -10 10 3 6 8 10 10 10 2 0 7 -4 10 -10z m795
-250 c0 -5 -2 -10 -4 -10 -3 0 -8 5 -11 10 -3 6 -1 10 4 10 6 0 11 -4 11 -10z
m-61 -44 c-2 -2 -17 -6 -34 -10 -22 -5 -26 -4 -15 4 14 9 59 15 49 6z m476
-16 c-3 -5 -14 -10 -23 -10 -15 0 -15 2 -2 10 20 13 33 13 25 0z m630 -80 c3
-6 -1 -7 -9 -4 -18 7 -21 14 -7 14 6 0 13 -4 16 -10z m2490 -8 c-3 -3 -11 0
-18 7 -9 10 -8 11 6 5 10 -3 15 -9 12 -12z"/>
<path d="M8230 889 c0 -5 5 -7 10 -4 6 3 10 8 10 11 0 2 -4 4 -10 4 -5 0 -10
-5 -10 -11z"/>
<path d="M6338 693 c7 -3 16 -2 19 1 4 3 -2 6 -13 5 -11 0 -14 -3 -6 -6z"/>
</g>
</svg>
